<svg xmlns="http://www.w3.org/2000/svg" viewBox="0 0 1200 630" width="100%" height="100%">
  <defs>
    <linearGradient id="bg_kathmandutechrisesvg" x1="0%" y1="0%" x2="100%" y2="100%">
      <stop offset="0%" stop-color="#0B0F19" />
      <stop offset="50%" stop-color="#111827" />
      <stop offset="100%" stop-color="#070A10" />
    </linearGradient>
    <linearGradient id="grad_kathmandutechrisesvg" x1="0%" y1="0%" x2="100%" y2="100%">
      <stop offset="0%" stop-color="#06B6D4" />
      <stop offset="100%" stop-color="#3B82F6" />
    </linearGradient>
    <radialGradient id="glow_kathmandutechrisesvg" cx="80%" cy="20%" r="60%">
      <stop offset="0%" stop-color="#06B6D4" stop-opacity="0.25" />
      <stop offset="100%" stop-color="#06B6D4" stop-opacity="0" />
    </radialGradient>
    <pattern id="grid_kathmandutechrisesvg" width="40" height="40" patternUnits="userSpaceOnUse">
      <path d="M 40 0 L 0 0 0 40" fill="none" stroke="rgba(255,255,255,0.04)" stroke-width="1" />
    </pattern>
  </defs>

  <rect width="1200" height="630" fill="url(#bg_kathmandutechrisesvg)" />
  <rect width="1200" height="630" fill="url(#grid_kathmandutechrisesvg)" />
  <circle cx="900" cy="150" r="350" fill="url(#glow_kathmandutechrisesvg)" />

  <rect x="50" y="50" width="1100" height="530" rx="24" fill="rgba(255, 255, 255, 0.02)" stroke="rgba(255, 255, 255, 0.08)" stroke-width="2" />

  <rect x="90" y="90" width="280" height="44" rx="22" fill="rgba(6, 182, 212, 0.12)" stroke="rgba(6, 182, 212, 0.35)" stroke-width="1.5" />
  <text x="115" y="118" fill="#06B6D4" font-family="sans-serif" font-size="14" font-weight="bold" letter-spacing="2">HIMNOVA TECH INSIGHTS</text>

  <g transform="translate(930, 210)">
    <circle cx="80" cy="80" r="80" fill="rgba(255,255,255,0.03)" stroke="url(#grad_kathmandutechrisesvg)" stroke-width="2" />
    <text x="80" y="92" fill="#06B6D4" font-family="sans-serif" font-size="32" font-weight="900" text-anchor="middle">NPL</text>
  </g>

  <text x="90" y="260" fill="#FFFFFF" font-family="sans-serif" font-size="44" font-weight="900" letter-spacing="-1">Kathmandu Cloud Hub</text>
  <text x="90" y="315" fill="#94A3B8" font-family="sans-serif" font-size="22" font-weight="500">Nepal Top 1% Engineering &amp; Global Software Exports</text>

  <path d="M 90 380 L 750 380" stroke="rgba(255,255,255,0.1)" stroke-width="2" />
  <g transform="translate(90, 410)">
    <rect x="0" y="0" width="180" height="54" rx="12" fill="rgba(255,255,255,0.05)" stroke="rgba(255,255,255,0.15)" />
    <text x="90" y="32" fill="#E2E8F0" font-family="monospace" font-size="14" text-anchor="middle">Next.js 14 RSC</text>

    <path d="M 180 27 L 220 27" stroke="#06B6D4" stroke-width="2" stroke-dasharray="4" />

    <rect x="220" y="0" width="200" height="54" rx="12" fill="rgba(6, 182, 212, 0.15)" stroke="#06B6D4" stroke-width="1.5" />
    <text x="320" y="32" fill="#06B6D4" font-family="monospace" font-size="14" font-weight="bold" text-anchor="middle">Go / Python Core</text>

    <path d="M 420 27 L 460 27" stroke="#3B82F6" stroke-width="2" stroke-dasharray="4" />

    <rect x="460" y="0" width="200" height="54" rx="12" fill="rgba(255,255,255,0.05)" stroke="rgba(255,255,255,0.15)" />
    <text x="560" y="32" fill="#E2E8F0" font-family="monospace" font-size="14" text-anchor="middle">Cloud Native DB</text>
  </g>

  <text x="90" y="525" fill="#64748B" font-family="sans-serif" font-size="14" font-weight="600">www.himnovatech.com • Production Architecture Series</text>
</svg>